<svg version="1.1"
	 id="svg4280" inkscape:output_extension="org.inkscape.output.svg.inkscape" inkscape:version="0.48.2 r9819" sodipodi:docname="md.svg" sodipodi:version="0.32" xmlns:cc="http://creativecommons.org/ns#" xmlns:dc="http://purl.org/dc/elements/1.1/" xmlns:inkscape="http://www.inkscape.org/namespaces/inkscape" xmlns:rdf="http://www.w3.org/1999/02/22-rdf-syntax-ns#" xmlns:sodipodi="http://sodipodi.sourceforge.net/DTD/sodipodi-0.dtd" xmlns:svg="http://www.w3.org/2000/svg"
	 xmlns="http://www.w3.org/2000/svg" xmlns:xlink="http://www.w3.org/1999/xlink" x="0px" y="0px" viewBox="0 0 49.6 25.6"
	 style="enable-background:new 0 0 49.6 25.6;" xml:space="preserve">
<style type="text/css">
	.safe{fill:#319847;stroke:#000000;stroke-linejoin:bevel;stroke-width:0.1pt;}
    .warning{fill:#F6CD0F;stroke:#000000;stroke-linejoin:bevel;stroke-width:0.1pt;}
    .risk{fill:#F58120;stroke:#000000;stroke-linejoin:bevel;stroke-width:0.1pt;}
	.danger{fill:#CC384A;stroke:#000000;stroke-linejoin:bevel;stroke-width:0.1pt;}
</style>
<path id="Allegany" inkscape:connector-curvature="0" class="safe" d="M12,6.2l0.4-0.1l0.3,1.1l-1,1.8L9.8,9.1L8.6,8.6L7,10.9
	l-1.1-0.2l0.8-3.4L7.9,7L12,6.2"/>
<path id="Garrett" inkscape:connector-curvature="0" class="safe" d="M6.7,7.2l-0.8,3.4l-1.8,2.2l-1.6,1.9L1.4,8.2L2.2,8L6.7,7.2"/>
<path id="St._Mary_x27_s" inkscape:connector-curvature="0" class="safe" d="M34.8,20.3l0.5,1.2l-0.5,1.1l-3.7-0.7l-0.4-0.5l-0.5-0.9
	l0-0.2l0.5-1.6l0.1-0.1l0.3,0l0.2,0l0.4,0.1L34.8,20.3"/>
<path id="Charles" inkscape:connector-curvature="0" class="safe" d="M27.1,16.7l0.6,1.1l0.2-0.3l0-0.1l0-0.1l0.1-0.1l0.3-0.1l1-0.2
	l1.2,0.3l0,0.1l0.2,0.7l0.5,0.1l0.2,0l0.1,0.5l-0.4-0.1l-0.2,0l-0.3,0l-0.1,0.1l-0.5,1.6l0,0.2l0.5,0.9l0.1,0.3v0.2l0,0.1l-3.9-0.6
	l-0.1,0l-0.4-0.2l-0.2-0.4L25.9,20l0-0.4L26,19l0.4-0.7l0.4-0.5L27.1,16.7"/>
<path id="Worcester" inkscape:connector-curvature="0" class="safe" d="M44.9,16.4l2.9-0.6l0,0.5l0,0.3l0,0.5l0,0.4l-0.4,3l0,0.2
	l0,0.1l-0.1,0.2l0,0.1l-0.2,0.5l-3.7,1.2l0.6-1.4l-0.3-1.2l-0.9-1.1l2.4-0.7l0.3-0.7l0-0.3l-0.2-0.6L44.9,16.4"/>
<path id="Wicomico" inkscape:connector-curvature="0" class="safe" d="M41.1,15.8l0.1,0.5l0.1,0.4l0.1,0.4l0.3,0l0.7-0.1l0,0l0.3-0.1
	l0.6-0.1l0.2,0l0.5-0.1l0,0l0.1,0l0.2,0l0.4-0.1l0.1,0l0.4,0.5l0.2,0.6l0,0.3l-0.3,0.7l-2.4,0.7l-2.4,1L39.8,20l0-1l0.3-2l0.1-0.1
	l0.2-0.1l0.2-0.2L41.1,15.8"/>
<path id="Washington" inkscape:connector-curvature="0" class="safe" d="M14.7,5.7l6.1-1.2l-0.1,0.7l-0.1,0.4l-0.1,0.1L20.1,6l0,0.1
	L20,7.1l0,1.2l-0.2,1.8l-0.4,0l-1.5-2l-2.2-1.2l-0.2-0.2l-0.4-0.3l-0.4-0.1l-0.4,0l-0.3,0l-0.1,0l-0.1,0.1l-0.3,0.4l-0.3,0.6l-0.1,0
	l-0.5-0.1l-0.3-1.1L14.7,5.7"/>
<path id="Calvert" inkscape:connector-curvature="0" class="safe" d="M34.8,20.3l-3.1-1.8l-0.1-0.5l-0.7-2.7l0-0.1l0.3-0.2l0.2,0
	l0.4,0.5l0.7,0l0,0.2l0.1,0.3l0.5,1.7l0,0.1l0.2,0.3l0.2,0.3l0.4,0.3l0.8,0.7l0,0.1l0,0.3L34.8,20.3"/>
<path id="Talbot" inkscape:connector-curvature="0" class="safe" d="M37.7,11.7l0.1,0.3l-0.1,1.8l-0.1,0.4l0,0l0.5,0.4l0.3,0.1
	l-1.9,1l0-0.1l-0.1-0.3l-1-0.8l-0.2,0l-0.5,0.2l0,0l-0.1,0.2v0.1l0.2,0.1l0,0.1l-0.2,0.1l-0.1-0.2l-0.1-0.9l0-0.3l0.2-0.7l0,0
	l0.3-0.3l0.7-0.1L37.7,11.7"/>
<path id="Caroline" inkscape:connector-curvature="0" class="safe" d="M37.7,11.7L39,8.4l1.8,6.4l-2.4,0l-0.3-0.1l-0.5-0.4l0,0
	l0.1-0.4l0.1-1.8L37.7,11.7"/>
<path id="Kent" inkscape:connector-curvature="0" class="safe" d="M35.9,6.1l2.3-0.5l0.3,1l0.2,0.6l-1.3,0.2l-0.8,0.2l-0.3,0.1
	l-0.4,0.5l-0.7,1.7l-0.4,0.2l-0.3,0l-0.6-0.6l0-0.3l0-0.2l0.4-1.9l0.1-0.2l0.5-0.6L35.9,6.1"/>
<path id="Baltimore_City" inkscape:connector-curvature="0" class="safe" d="M31.2,9.1L30.3,9l-0.8-0.3l-0.2-1.2h1.9L31.2,9.1"/>
<path id="Prince_George_x27_s" inkscape:connector-curvature="0" class="safe" d="M28,10.9l0.5,0.3l1.7,1.2l0.4,0.8l0.4,2.1l0.7,2.7
	l-0.2,0l-0.5-0.1l-0.2-0.7l0-0.1l-1.2-0.3l-1,0.2l-0.3,0.1L28,17.3l0,0.1l0,0.1l-0.2,0.3l-0.6-1.1l0.2-1.1l0-0.1l1.1-1.7l-1.2-0.6
	L28,10.9"/>
<path id="Anne_Arundel" inkscape:connector-curvature="0" class="safe" d="M31.2,9.1L31.2,9.1l1.2,1.1l0.6,1.1l0.1,0.1l-0.4,1
	l-0.2,0.8l-0.4,1.6l0.1,0.3l0.1,0.1l0.3,0.2l-0.7,0L31.5,15l-0.2,0L31,15.3l0,0.1l-0.4-2.1l-0.4-0.8l-1.7-1.2l1.1-1.7L30.3,9
	L31.2,9.1"/>
<path id="Howard" inkscape:connector-curvature="0" class="safe" d="M27.5,8.1l2.1,1.4l-1.1,1.7L28,10.9L27.8,11l-0.4,0l-0.1,0
	l-2.1-1.4l-0.5-0.5l-0.2-0.3l0,0l0-0.1l0.1-0.1l0,0L27.5,8.1"/>
<path id="Montgomery" inkscape:connector-curvature="0" class="safe" d="M24.7,8.7l-0.1,0.1l0,0.1l0,0l0.2,0.3l0.5,0.5l2.1,1.4l0.1,0
	l0.4,0l0.2-0.1l-0.7,2.3L26.8,13l-0.6,0.9l-2.3-1.2l-0.5,0.1l-0.5,0l-0.4,0l0,0l-0.6-0.4l-0.1,0h0l-0.1-0.1L21.7,12l0,0l0-0.1l0-0.2
	l0-0.1l0-0.1l0.4-0.6L24.7,8.7"/>
<path id="Queen_Anne_x27_s" inkscape:connector-curvature="0" class="safe" d="M37.7,11.7l-2.2,1.5l-0.3-3.3l0.7-1.7l0.4-0.5l0.3-0.1
	l0.8-0.2l1.3-0.2L39,8.4L37.7,11.7"/>
<path id="Cecil" inkscape:connector-curvature="0" class="safe" d="M33.7,1.9L37,1.2l1.2,4.3l-2.3,0.5l-1.2-2l-2-1.9L33.7,1.9"/>
<path id="Harford" inkscape:connector-curvature="0" class="safe" d="M32.7,2.1L32.7,2.1L34.8,4l0.4,1.1l0,0.1l-1,1.1l-0.4,0.4
	l-0.4,0.4l-0.3-0.2l-0.2-0.2l0-0.1L32,5.8l-0.6-0.4l-0.6-0.2l-0.2,0L30.3,5l-0.4-0.6l-0.1-0.2l-0.3-1.3L32.7,2.1"/>
<path id="Baltimore_County" inkscape:connector-curvature="0" class="safe" d="M27.4,3.2l2.1-0.4l0.3,1.3l0.1,0.2L30.3,5l0.3,0.2
	l0.2,0l0.6,0.2L32,5.8l0.9,1.1l0,0.1h0L32.7,7l-0.2,0.8l-0.1,0.6l0.2,0.1l0.1,0l0,0.1l0,0.1l-0.3,0.4l-0.1,0.2l-0.6-0.1l-0.3-0.1
	l0,0l0-1.5h-1.9l0.2,1.2L30.3,9l-0.7,0.5l-2.1-1.4l-0.4-1.3l0.2-1L27.4,3.2"/>
<path id="Carroll" inkscape:connector-curvature="0" class="safe" d="M27.4,3.2l-0.2,2.5l-0.2,1l0.4,1.3l-2.8,0.5l0.2-1.5l0-0.4l0,0
	l-1.2-0.9l-0.8-0.7l0.4-1l2.1-0.4L27.4,3.2"/>
<path id="Frederick" inkscape:connector-curvature="0" class="safe" d="M20.9,4.5l2.3-0.5l-0.4,1l0.8,0.7l1.2,0.9l0,0l0,0.4l-0.2,1.5
	l0,0l-2.5,2.3l-2.4-0.8L20,8.3l0-1.2l0.1-0.9l0-0.1l0.4-0.2l0.1-0.1l0.1-0.4L20.9,4.5L20.9,4.5"/>
<path id="Somerset" inkscape:connector-curvature="0" class="safe" d="M40.4,20.2l2.4-1l0.9,1.1l0.3,1.2l-0.6,1.4l-0.3,0.6l-1.2,0
	l-0.9-2L40.4,20.2 M38.5,22.2l0.3-0.1l0.1-0.3l0.1-0.3l0.1,0.3l0.1,0.4l0.1,0.2l0,0.1l-0.1,0l-0.1,0l-0.3-0.2L38.5,22.2 M39.3,24.2
	l-0.1-0.4l-0.1-0.4l0-0.1l0-0.1l0.2-0.1l0.1,0l0.1,0l0.3,0.1l0.1,0.1l0,0.1l-0.1,0.1l0,0.4l0.1,0.3l0,0.2l0,0.2l-0.3,0.1l-0.2-0.2
	L39.3,24.2"/>
<path id="Dorchester" inkscape:connector-curvature="0" class="safe" d="M38.4,14.8l2.4,0l0.3,0.9l-0.5,0.8l-0.2,0.2l-0.2,0.1
	L40.1,17l-0.3,2l0,1l-1.2,0.4l-1.4,0.2l-0.1,0L36.3,20l0,0l-0.1-0.3l-0.6-1.2l-0.3-0.7l0.1-1.5l0.1-0.1l0.2-0.2l0.1,0l0.8-0.2
	L38.4,14.8 M38.5,22.2L38.5,22.2L38.5,22.2L38.4,22l-0.1-0.3l-0.1-0.5l0.1-0.2l0.2,0l0.3,0.3l0,0.1l0.1,0.2L39,21.8l-0.1,0.3
	L38.5,22.2"/>
</svg>
